<svg width="61" height="61" viewBox="0 0 61 61" fill="none" xmlns="http://www.w3.org/2000/svg">
<path d="M35.7569 25.7386C35.2297 25.7386 34.8039 26.1658 34.8039 26.6916C34.8039 26.7014 34.8095 26.7098 34.8095 26.7195C34.8257 28.8084 36.5261 30.5036 38.6187 30.5036H45.2869L45.2888 58.6173C45.2888 58.6234 45.2916 58.628 45.2916 58.6336C45.3097 59.9328 46.3684 60.9849 47.6713 60.9849C48.9738 60.9849 50.0338 59.9328 50.051 58.6336C50.051 58.628 50.0538 58.6234 50.0538 58.6173V58.6015L50.0394 3.87577C50.0412 3.85483 50.0519 3.83669 50.0519 3.81575C50.0519 1.7115 48.3404 0 46.2362 0C46.2227 0 46.212 0.00651469 46.1999 0.00744536L35.7597 0C35.7587 0 35.7587 0 35.7587 0C35.6271 0 35.5014 0.0265241 35.3869 0.0753842C35.2106 0.149838 35.0752 0.286646 34.9723 0.44486C34.9421 0.491859 34.9021 0.530947 34.8802 0.582134C34.8667 0.612846 34.8686 0.649142 34.8602 0.68125C34.8332 0.769199 34.8048 0.856682 34.8048 0.953006V3.81947C34.8048 4.34576 35.2306 4.77247 35.7578 4.77247H45.2762V5.72548H35.756C35.2287 5.72548 34.8029 6.15266 34.8029 6.67849C34.8029 7.20478 35.2287 7.63149 35.756 7.63149H45.2762V8.5845H35.756C35.2287 8.5845 34.8029 9.01168 34.8029 9.5375C34.8029 10.0638 35.2287 10.4905 35.756 10.4905H45.2762V11.4435H35.756C35.2287 11.4435 34.8029 11.8707 34.8029 12.3965C34.8029 12.9228 35.2287 13.3495 35.756 13.3495H45.2762V14.3025H35.756C35.2287 14.3025 34.8029 14.7297 34.8029 15.2555C34.8029 15.7818 35.2287 16.2085 35.756 16.2085H45.2762V17.1616H35.756C35.2287 17.1616 34.8029 17.5887 34.8029 18.1146C34.8029 18.6409 35.2287 19.0676 35.756 19.0676H45.2762V20.0206H35.756C35.2287 20.0206 34.8029 20.4477 34.8029 20.9736C34.8029 21.4999 35.2287 21.9266 35.756 21.9266H45.2762V22.8796H35.756C35.2287 22.8796 34.8029 23.3068 34.8029 23.8326C34.8029 24.3589 35.2287 24.7856 35.756 24.7856H45.2762V25.7386H35.7569ZM46.2301 27.6446C46.7574 27.6446 47.1832 27.2179 47.1832 26.6916V3.81947C47.1832 3.29364 46.7574 2.86646 46.2301 2.86646H36.7117V1.90694L46.2353 1.91346H46.2362C46.2446 1.91346 46.252 1.9088 46.2599 1.9088C47.2883 1.9223 48.1199 2.75153 48.1422 3.77759C48.1413 3.79201 48.1334 3.80365 48.1334 3.81761L48.1478 58.6015C48.1478 58.8635 47.9333 59.078 47.6713 59.078C47.4093 59.078 47.1948 58.8635 47.1948 58.6015L47.1929 29.566C47.1929 29.4287 47.1613 29.3003 47.1092 29.183C46.9658 28.8391 46.6266 28.5976 46.2301 28.5976H38.6187C37.9174 28.5976 37.3083 28.2119 36.9775 27.6446H46.2301Z" fill="#E75F85"/>
<path d="M19.0676 60.9998C22.1584 60.9998 24.8475 59.259 26.2133 56.7067C27.579 59.259 30.2682 60.9998 33.359 60.9998C37.8257 60.9998 41.4595 57.366 41.4595 52.8993C41.4595 48.4325 37.8257 44.7987 33.359 44.7987C32.1668 44.7987 31.0374 45.064 30.0179 45.5289V5.75994C30.0179 5.75529 30.0207 5.75064 30.0207 5.74552C30.0207 3.42722 28.8066 1.39045 26.6879 0.157311C26.3915 -0.0153278 26.0258 -0.0153278 25.7293 0.157311C23.6107 1.38952 22.3966 3.42722 22.3966 5.74552C22.3966 5.75436 22.4013 5.76087 22.4013 5.76878V45.5242C21.3836 45.0631 20.257 44.7978 19.0676 44.7978C14.6009 44.7978 10.9671 48.4316 10.9671 52.8984C10.9671 57.3651 14.6018 60.9998 19.0676 60.9998ZM33.359 46.7048C36.7745 46.7048 39.5535 49.4837 39.5535 52.8993C39.5535 56.3149 36.7745 59.0938 33.359 59.0938C29.956 59.0938 27.1863 56.3339 27.1663 52.9365C27.1663 52.9235 27.1682 52.9119 27.1682 52.8993C27.1682 52.8872 27.1663 52.8756 27.1663 52.8625C27.1872 49.4637 29.956 46.7048 33.359 46.7048ZM27.1663 47.6885V30.5153H28.1119V46.7392C27.7717 47.03 27.4553 47.3465 27.1663 47.6885V47.6885ZM26.2086 2.11591C27.4353 3.00376 28.1039 4.26482 28.1128 5.71899C28.1128 5.72086 28.1119 5.72272 28.1119 5.72458V28.6084H26.277C26.2552 28.6074 26.2361 28.5949 26.2133 28.5949C25.6865 28.5949 25.2603 29.022 25.2603 29.5479V47.6875C24.9694 47.3437 24.6502 47.024 24.3073 46.7317V5.72551C24.3073 5.72086 24.3045 5.71713 24.3045 5.71248C24.3147 4.26017 24.9839 3.0019 26.2086 2.11591V2.11591ZM19.0676 46.7048C22.4711 46.7048 25.2403 49.4647 25.2603 52.8625C25.2603 52.8756 25.2584 52.8872 25.2584 52.8993C25.2584 52.9119 25.2603 52.9235 25.2603 52.9365C25.2403 56.3339 22.4711 59.0938 19.0676 59.0938C15.6521 59.0938 12.8731 56.3149 12.8731 52.8993C12.8731 49.4837 15.6521 46.7048 19.0676 46.7048V46.7048Z" fill="#E75F85"/>
<path d="M19.0677 58.1407C21.9574 58.1407 24.3092 55.7889 24.3092 52.8992C24.3092 50.01 21.9574 47.6577 19.0677 47.6577C16.1784 47.6577 13.8261 50.01 13.8261 52.8992C13.8261 55.7889 16.1784 58.1407 19.0677 58.1407ZM19.0677 49.5637C20.9071 49.5637 22.4032 51.0602 22.4032 52.8992C22.4032 54.7387 20.9071 56.2347 19.0677 56.2347C17.2287 56.2347 15.7322 54.7387 15.7322 52.8992C15.7322 51.0602 17.2287 49.5637 19.0677 49.5637Z" fill="white"/>
<path d="M33.36 58.1407C36.2497 58.1407 38.6015 55.7889 38.6015 52.8992C38.6015 50.01 36.2497 47.6577 33.36 47.6577C30.4707 47.6577 28.1184 50.01 28.1184 52.8992C28.1184 55.7889 30.4707 58.1407 33.36 58.1407ZM33.36 49.5637C35.1994 49.5637 36.6955 51.0602 36.6955 52.8992C36.6955 54.7387 35.1994 56.2347 33.36 56.2347C31.5205 56.2347 30.0244 54.7387 30.0244 52.8992C30.0244 51.0602 31.5214 49.5637 33.36 49.5637Z" fill="white"/>
<path d="M26.2421 26.6898C26.768 26.6898 27.1951 26.2631 27.1951 25.7368C27.1951 25.2109 26.768 24.7838 26.2421 24.7838H26.2314C25.7056 24.7838 25.284 25.2109 25.284 25.7368C25.284 26.2631 25.7149 26.6898 26.2421 26.6898Z" fill="white"/>
</svg>
