<svg width="70" height="70" viewBox="0 0 70 70" fill="none" xmlns="http://www.w3.org/2000/svg">
<circle cx="35.4664" cy="34.5333" r="34.5333" fill="#FAD5D5"/>
<path d="M35.4665 1.8667C17.4272 1.8667 2.7998 16.4941 2.7998 34.5334C2.7998 49.6689 13.108 62.3726 27.082 66.0748L35.4665 67.2L43.8509 66.0748C57.825 62.3726 68.1331 49.6689 68.1331 34.5334C68.1331 16.4941 53.5057 1.8667 35.4665 1.8667ZM35.4665 9.12596C41.4917 9.12596 46.3554 13.9897 46.3554 20.0148C46.3554 26.04 41.4917 30.9037 35.4665 30.9037C29.4413 30.9037 24.5776 26.04 24.5776 20.0148C24.5776 13.9897 29.4413 9.12596 35.4665 9.12596ZM35.4665 61.0297C26.3924 61.0297 18.3709 56.3837 13.6887 49.3423C13.7976 42.1193 28.2072 38.163 35.4665 38.163C42.6894 38.163 57.1354 42.1193 57.2442 49.3423C52.562 56.3837 44.5405 61.0297 35.4665 61.0297Z" fill="white"/>
</svg>
