<svg width="61" height="61" viewBox="0 0 61 61" fill="none" xmlns="http://www.w3.org/2000/svg">
<g clip-path="url(#clip0)">
<path d="M23.852 5.64508C28.2527 6.38954 32.7472 6.38954 37.1479 5.64508C38.0947 5.43665 38.7696 4.59844 38.7712 3.62898V2.0678C38.7712 0.925784 37.8454 0 36.7034 0H24.2966C23.1546 0 22.2288 0.925784 22.2288 2.0678V3.62898C22.2304 4.59844 22.9052 5.43665 23.852 5.64508Z" fill="#E75F85"/>
<path d="M12.9237 29.9831H16.0254V36.1865C16.0201 37.2524 16.8258 38.1477 17.8864 38.2543L18.3103 38.3473C19.4063 41.356 24.9376 42.2555 29.4661 42.3899V44.4577H28.4322C27.8612 44.4577 27.3983 44.9206 27.3983 45.4916V48.5933H24.2966C22.6186 48.5925 21.0119 49.2716 19.843 50.4755C18.6741 51.6794 18.0429 53.3055 18.0932 54.9828C16.669 55.4863 15.8146 56.9427 16.0701 58.4316C16.3255 59.9205 17.6165 61.0088 19.1271 61.0088C20.6377 61.0088 21.9287 59.9205 22.1841 58.4316C22.4396 56.9427 21.5852 55.4863 20.161 54.9828C20.1102 53.8541 20.5233 52.7537 21.3045 51.9374C22.0856 51.1211 23.1667 50.6599 24.2966 50.6611H27.3983C27.3983 51.2321 27.8612 51.695 28.4322 51.695H29.4661V54.9828C28.0418 55.4863 27.1875 56.9427 27.443 58.4316C27.6984 59.9205 28.9893 61.0088 30.5 61.0088C32.0106 61.0088 33.3016 59.9205 33.557 58.4316C33.8125 56.9427 32.9581 55.4863 31.5339 54.9828V51.695H32.5678C32.842 51.695 33.105 51.586 33.2989 51.3921C33.4927 51.1982 33.6017 50.9353 33.6017 50.6611H36.7034C37.8332 50.6599 38.9143 51.1211 39.6955 51.9374C40.4766 52.7537 40.8898 53.8541 40.839 54.9828C39.4147 55.4863 38.5604 56.9427 38.8158 58.4316C39.0713 59.9205 40.3622 61.0088 41.8729 61.0088C43.3835 61.0088 44.6744 59.9205 44.9299 58.4316C45.1853 56.9427 44.331 55.4863 42.9068 54.9828C42.9571 53.3055 42.3258 51.6794 41.157 50.4755C39.9881 49.2716 38.3814 48.5925 36.7034 48.5933H33.6017V45.4916C33.6017 44.9206 33.1388 44.4577 32.5678 44.4577H31.5339V42.3899C31.5339 42.2865 41.1698 42.4622 42.6896 38.3266L43.1135 38.2543C44.1741 38.1477 44.9799 37.2524 44.9746 36.1865V29.9831H48.0763C49.2183 29.9831 50.144 29.0573 50.144 27.9153V25.8475C50.144 24.7055 49.2183 23.7797 48.0763 23.7797H44.9746C43.8325 23.7797 42.9068 24.7055 42.9068 25.8475V34.3875C42.3256 33.5713 41.386 33.0861 40.384 33.0848H36.8171C38.1382 32.614 39.3337 31.8464 40.3117 30.8412C40.7275 30.389 40.9208 29.7752 40.839 29.1663C40.0739 24.2863 39.9498 15.9117 39.9291 10.7422C39.9211 9.8581 39.3518 9.07693 38.5127 8.79847C32.3093 6.73067 28.7527 6.73067 22.5286 8.79847C21.6895 9.07693 21.1202 9.8581 21.1122 10.7422C21.1122 15.9117 20.9674 24.2863 20.2024 29.1663C20.115 29.7721 20.3005 30.3854 20.709 30.8412C21.681 31.8438 22.8692 32.6112 24.1829 33.0848H20.6159C19.614 33.0861 18.6743 33.5713 18.0932 34.3875V25.8475C18.0932 24.7055 17.1674 23.7797 16.0254 23.7797H12.9237C11.7817 23.7797 10.8559 24.7055 10.8559 25.8475V27.9153C10.8559 29.0573 11.7817 29.9831 12.9237 29.9831V29.9831ZM19.1271 58.9323C18.5561 58.9323 18.0932 58.4694 18.0932 57.8984C18.0932 57.3273 18.5561 56.8645 19.1271 56.8645C19.6981 56.8645 20.161 57.3273 20.161 57.8984C20.161 58.4694 19.6981 58.9323 19.1271 58.9323ZM41.8729 56.8645C42.4439 56.8645 42.9068 57.3273 42.9068 57.8984C42.9068 58.4694 42.4439 58.9323 41.8729 58.9323C41.3019 58.9323 40.839 58.4694 40.839 57.8984C40.839 57.3273 41.3019 56.8645 41.8729 56.8645ZM44.9746 25.8475H48.0763V27.9153H44.9746V25.8475ZM31.5339 57.8984C31.5339 58.4694 31.071 58.9323 30.5 58.9323C29.929 58.9323 29.4661 58.4694 29.4661 57.8984C29.4661 57.3273 29.929 56.8645 30.5 56.8645C31.071 56.8645 31.5339 57.3273 31.5339 57.8984ZM19.6337 35.8556C19.7815 35.4158 20.2043 35.1284 20.6676 35.1526H40.384C40.8285 35.1514 41.224 35.4345 41.3663 35.8556L41.5524 36.4346C34.2215 37.484 26.7785 37.484 19.4476 36.4346L19.6337 35.8556ZM12.9237 25.8475H16.0254V27.9153H12.9237V25.8475Z" fill="#E85F85"/>
</g>
<defs>
<clipPath id="clip0">
<rect width="61" height="61" fill="white"/>
</clipPath>
</defs>
</svg>
