<svg width="61" height="61" viewBox="0 0 61 61" fill="none" xmlns="http://www.w3.org/2000/svg">
<path d="M61 30.5C61 13.6829 47.3171 0 30.5 0C13.6829 0 0 13.6829 0 30.5C0 39.3827 3.81971 47.3892 9.89975 52.968L9.87091 52.9935L10.8602 53.8275C10.9245 53.8819 10.9944 53.9262 11.0587 53.9795C11.5845 54.4153 12.129 54.829 12.6836 55.2294C12.8632 55.3592 13.0429 55.4889 13.2259 55.6154C13.8182 56.0235 14.4259 56.4106 15.047 56.7777C15.1823 56.8575 15.3188 56.9352 15.4552 57.0128C16.1351 57.3999 16.8293 57.7648 17.5403 58.0997C17.5924 58.1241 17.6456 58.1463 17.6978 58.1707C20.0147 59.2476 22.4879 60.0384 25.0743 60.5053C25.142 60.5175 25.2096 60.5297 25.2784 60.5419C26.0814 60.6806 26.8932 60.7915 27.7151 60.8658C27.8149 60.8747 27.9147 60.8802 28.0156 60.8891C28.8341 60.9567 29.6615 61 30.5 61C31.3307 61 32.1503 60.9567 32.9644 60.8913C33.0675 60.8824 33.1707 60.8769 33.2738 60.868C34.089 60.7937 34.8942 60.6861 35.6894 60.5497C35.7582 60.5375 35.8281 60.5253 35.8968 60.512C38.4444 60.0551 40.8822 59.282 43.1691 58.2328C43.2534 58.194 43.3388 58.1574 43.4231 58.1175C44.1074 57.7958 44.7762 57.4487 45.4317 57.0794C45.5947 56.9873 45.7567 56.8941 45.9186 56.7988C46.5153 56.4472 47.102 56.0801 47.6721 55.6897C47.8772 55.5499 48.078 55.4024 48.2809 55.256C48.7678 54.9055 49.2459 54.544 49.7106 54.1658C49.8137 54.0826 49.9246 54.0105 50.0255 53.9251L51.0404 53.0778L51.0104 53.0523C57.1437 47.4713 61 39.4282 61 30.5ZM2.21818 30.5C2.21818 14.9051 14.9051 2.21818 30.5 2.21818C46.0949 2.21818 58.7818 14.9051 58.7818 30.5C58.7818 38.9036 55.0941 46.4587 49.2558 51.6426C48.9298 51.4175 48.6015 51.2156 48.2654 51.047L38.8747 46.3522C38.0318 45.9308 37.5083 45.0834 37.5083 44.1418V40.8622C37.7257 40.5938 37.9553 40.2899 38.1927 39.9561C39.4082 38.2392 40.3831 36.3294 41.094 34.2742C42.4993 33.6066 43.4065 32.2069 43.4065 30.6264V26.6947C43.4065 25.7331 43.0538 24.8004 42.4227 24.0673V18.8911C42.4804 18.3155 42.6845 15.067 40.3343 12.3874C38.2903 10.0539 34.9818 8.87273 30.5 8.87273C26.0182 8.87273 22.7097 10.0539 20.6657 12.3863C18.3155 15.0659 18.5196 18.3144 18.5773 18.89V24.0662C17.9473 24.7993 17.5935 25.732 17.5935 26.6936V30.6253C17.5935 31.8464 18.1414 32.9855 19.0797 33.7541C19.9781 37.2732 21.8269 39.9373 22.5101 40.8401V44.0498C22.5101 44.9548 22.0166 45.7866 21.2213 46.2214L12.4518 51.0049C12.1723 51.1568 11.895 51.3343 11.6177 51.5328C5.85156 46.3511 2.21818 38.8426 2.21818 30.5ZM47.0909 53.3828C46.7027 53.6645 46.3079 53.9373 45.9075 54.1979C45.7234 54.3177 45.5404 54.4375 45.3529 54.554C44.8295 54.8778 44.2971 55.1861 43.7536 55.4745C43.6339 55.5377 43.513 55.5976 43.3921 55.6597C42.1432 56.2997 40.8511 56.8498 39.5236 57.2967C39.477 57.3123 39.4304 57.3289 39.3827 57.3444C38.6873 57.5751 37.983 57.7803 37.271 57.9567C37.2688 57.9567 37.2666 57.9578 37.2643 57.9578C36.5457 58.1352 35.8181 58.2827 35.0861 58.4036C35.0661 58.4069 35.0462 58.4114 35.0262 58.4147C34.3375 58.5267 33.6432 58.6077 32.9467 58.6687C32.8235 58.6798 32.7004 58.6875 32.5762 58.6964C31.8875 58.7485 31.1954 58.7818 30.5 58.7818C29.7968 58.7818 29.0959 58.7474 28.3983 58.6953C28.2774 58.6864 28.1565 58.6787 28.0367 58.6676C27.3335 58.6055 26.6337 58.5223 25.9405 58.4092C25.9095 58.4036 25.8784 58.3981 25.8474 58.3925C24.3811 58.1474 22.9382 57.787 21.533 57.3156C21.4897 57.3012 21.4454 57.2857 21.4021 57.2712C20.7045 57.0339 20.0147 56.771 19.337 56.4805C19.3326 56.4782 19.327 56.476 19.3226 56.4738C18.6815 56.1976 18.0527 55.8915 17.4316 55.5688C17.3506 55.5266 17.2685 55.4867 17.1887 55.4435C16.6219 55.1407 16.0674 54.8135 15.5206 54.4719C15.3587 54.3699 15.1979 54.2667 15.0382 54.1625C14.5346 53.8331 14.0378 53.4903 13.5542 53.1277C13.5043 53.09 13.4566 53.05 13.4067 53.0123C13.4422 52.9924 13.4777 52.9724 13.5132 52.9524L22.2827 48.1689C23.7911 47.346 24.7283 45.7677 24.7283 44.0498L24.7272 40.0548L24.4721 39.7465C24.4477 39.7188 22.0498 36.8019 21.1437 32.8524L21.0428 32.4132L20.6646 32.1681C20.1311 31.8231 19.8117 31.2464 19.8117 30.6242V26.6925C19.8117 26.1768 20.0302 25.6965 20.4295 25.3361L20.7955 25.0056V18.8279L20.7855 18.6826C20.7821 18.656 20.455 15.9887 22.3338 13.847C23.9375 12.0192 26.6858 11.0909 30.5 11.0909C34.2997 11.0909 37.0392 12.0115 38.6474 13.8259C40.524 15.9454 40.2167 18.6627 40.2145 18.6849L40.2045 25.0078L40.5705 25.3383C40.9687 25.6976 41.1883 26.179 41.1883 26.6947V30.6264C41.1883 31.4172 40.6504 32.1348 39.8785 32.3733L39.3273 32.5429L39.1498 33.0919C38.4954 35.1249 37.5638 37.0026 36.3815 38.6729C36.0909 39.0833 35.8081 39.447 35.5652 39.7254L35.2902 40.0393V44.1418C35.2902 45.9297 36.2839 47.5379 37.8832 48.3364L47.2739 53.0312C47.3338 53.0611 47.3926 53.0922 47.4513 53.1232C47.3327 53.2131 47.2107 53.2963 47.0909 53.3828Z" fill="#E65F85"/>
</svg>
