<svg width="38" height="38" viewBox="0 0 38 38" fill="none" xmlns="http://www.w3.org/2000/svg">
<path d="M38 19C38 8.52375 29.4763 0 19 0C8.52375 0 0 8.52375 0 19C0 24.5335 2.37949 29.5212 6.16705 32.9964L6.14909 33.0123L6.76538 33.5319C6.80545 33.5657 6.84898 33.5934 6.88905 33.6265C7.21655 33.8981 7.55578 34.1558 7.90124 34.4052C8.01316 34.486 8.12509 34.5669 8.23909 34.6456C8.60804 34.8999 8.98665 35.141 9.37356 35.3697C9.45785 35.4195 9.54284 35.4678 9.62782 35.5162C10.0513 35.7573 10.4839 35.9846 10.9267 36.1933C10.9592 36.2085 10.9924 36.2223 11.0248 36.2375C12.4681 36.9084 14.0089 37.401 15.6201 37.6919C15.6622 37.6995 15.7044 37.7071 15.7472 37.7147C16.2474 37.801 16.7532 37.8701 17.2651 37.9164C17.3273 37.9219 17.3895 37.9254 17.4524 37.9309C17.9623 37.9731 18.4777 38 19 38C19.5175 38 20.0281 37.9731 20.5352 37.9323C20.5995 37.9268 20.6637 37.9233 20.728 37.9178C21.2358 37.8715 21.7374 37.8045 22.2328 37.7195C22.2756 37.7119 22.3191 37.7043 22.362 37.696C23.949 37.4113 25.4676 36.9298 26.8923 36.2762C26.9448 36.252 26.998 36.2292 27.0505 36.2043C27.4768 36.004 27.8934 35.7877 28.3017 35.5576C28.4033 35.5003 28.5041 35.4423 28.605 35.3828C28.9767 35.1638 29.3422 34.9351 29.6973 34.6919C29.8252 34.6049 29.9502 34.513 30.0767 34.4218C30.38 34.2035 30.6777 33.9782 30.9672 33.7426C31.0315 33.6908 31.1006 33.6459 31.1635 33.5927L31.7956 33.0648L31.777 33.0489C35.5977 29.5723 38 24.5618 38 19ZM1.38182 19C1.38182 9.28513 9.28513 1.38182 19 1.38182C28.7149 1.38182 36.6182 9.28513 36.6182 19C36.6182 24.235 34.3209 28.9415 30.684 32.1708C30.4808 32.0305 30.2763 31.9048 30.067 31.7998L24.2171 28.8752C23.692 28.6126 23.3659 28.0848 23.3659 27.4982V25.4552C23.5013 25.288 23.6443 25.0987 23.7921 24.8907C24.5494 23.8212 25.1567 22.6314 25.5996 21.3512C26.4749 20.9352 27.0401 20.0633 27.0401 19.0788V16.6295C27.0401 16.0305 26.8204 15.4494 26.4273 14.9927V11.7683C26.4632 11.4097 26.5903 9.386 25.1263 7.71676C23.8529 6.26309 21.792 5.52727 19 5.52727C16.208 5.52727 14.1471 6.26309 12.8737 7.71607C11.4097 9.38531 11.5368 11.409 11.5727 11.7676V14.992C11.1803 15.4487 10.9599 16.0298 10.9599 16.6288V19.0781C10.9599 19.8388 11.3012 20.5483 11.8857 21.0271C12.4453 23.2194 13.5971 24.8789 14.0227 25.4413V27.4408C14.0227 28.0046 13.7152 28.5228 13.2199 28.7936L7.75684 31.7735C7.58273 31.8682 7.41 31.9787 7.23727 32.1024C3.64524 28.8745 1.38182 24.197 1.38182 19ZM29.3353 33.2548C29.0935 33.4303 28.8475 33.6003 28.5981 33.7627C28.4834 33.8373 28.3694 33.9119 28.2527 33.9844C27.9265 34.1862 27.5949 34.3783 27.2564 34.5579C27.1817 34.5973 27.1064 34.6346 27.0311 34.6733C26.2532 35.0719 25.4483 35.4146 24.6212 35.6931C24.5922 35.7027 24.5632 35.7131 24.5335 35.7228C24.1003 35.8665 23.6616 35.9943 23.218 36.1041C23.2166 36.1041 23.2152 36.1048 23.2139 36.1048C22.7661 36.2154 22.3129 36.3073 21.8569 36.3826C21.8445 36.3847 21.832 36.3874 21.8196 36.3895C21.3905 36.4593 20.958 36.5097 20.5241 36.5477C20.4475 36.5546 20.3708 36.5595 20.2934 36.565C19.8643 36.5975 19.4332 36.6182 19 36.6182C18.562 36.6182 18.1253 36.5968 17.6907 36.5643C17.6154 36.5588 17.5401 36.5539 17.4655 36.547C17.0275 36.5083 16.5915 36.4565 16.1597 36.386C16.1403 36.3826 16.121 36.3791 16.1016 36.3757C15.1883 36.223 14.2894 35.9984 13.414 35.7048C13.3871 35.6958 13.3594 35.6861 13.3325 35.6772C12.8979 35.5293 12.4681 35.3656 12.046 35.1845C12.0432 35.1832 12.0398 35.1818 12.037 35.1804C11.6377 35.0084 11.2459 34.8177 10.859 34.6166C10.8086 34.5904 10.7575 34.5655 10.7077 34.5385C10.3547 34.3499 10.0092 34.1461 9.66858 33.9333C9.56771 33.8697 9.46753 33.8055 9.36804 33.7405C9.05436 33.5353 8.74484 33.3219 8.4436 33.0959C8.41251 33.0724 8.3828 33.0476 8.35171 33.0241C8.37382 33.0116 8.39593 32.9992 8.41804 32.9868L13.8811 30.0069C14.8207 29.4942 15.4045 28.5111 15.4045 27.4408L15.4038 24.9522L15.2449 24.7601C15.2297 24.7428 13.736 22.9257 13.1715 20.4654L13.1086 20.1918L12.873 20.0391C12.5407 19.8243 12.3417 19.465 12.3417 19.0774V16.6281C12.3417 16.3068 12.4778 16.0077 12.7265 15.7831L12.9545 15.5772V11.7289L12.9483 11.6384C12.9463 11.6218 12.7424 9.96015 13.9128 8.626C14.9119 7.48738 16.624 6.90909 19 6.90909C21.3671 6.90909 23.0736 7.48255 24.0754 8.61287C25.2444 9.9332 25.0531 11.6259 25.0517 11.6397L25.0455 15.5786L25.2735 15.7845C25.5215 16.0084 25.6583 16.3082 25.6583 16.6295V19.0788C25.6583 19.5714 25.3232 20.0184 24.8423 20.1669L24.4989 20.2727L24.3884 20.6147C23.9808 21.8811 23.4004 23.0508 22.6639 24.0913C22.4829 24.3469 22.3067 24.5736 22.1554 24.747L21.984 24.9425V27.4982C21.984 28.6119 22.6031 29.6137 23.5994 30.1112L29.4493 33.0358C29.4866 33.0545 29.5232 33.0738 29.5599 33.0932C29.4859 33.1491 29.4099 33.2009 29.3353 33.2548Z" fill="#E67294"/>
</svg>
